<svg xmlns="http://www.w3.org/2000/svg" viewBox="0 0 256 48" class="h-12"><path d="M91.3 14.1h6.6v23.5h-6.6v-3.8c-1 3.1-4.7 4.4-7.1 4.4-6.1 0-9.4-4.1-9.3-11.2V14.1h6.6v12.6c0 3.7 2.2 5.4 4.5 5.4 2.4 0 5.3-1.3 5.3-5.5V14.1zM127 24.7v12.9h-6.6V25c0-3.7-2.2-5.3-4.5-5.3-2.4 0-5.3 1.3-5.3 5.5v12.3H104V14h6.6v3.8c1.1-3.1 4.8-4.4 7.1-4.4 6.2.1 9.4 4.2 9.3 11.3zm28.8 0v12.9h-6.6V25.1c0-3.7-2.2-5.4-4.5-5.4-2.4 0-5.3 1.3-5.3 5.5v12.3h-6.6V6.3l6.6-1.9v13.3c1-3 4.8-4.3 7.1-4.3 6.2.1 9.4 4.2 9.3 11.3zm23.6-10.6h6.6v23.5h-6.6v-3.4c-1.6 2.4-4.6 4-7.8 4-6.5 0-11.3-5-11.3-12.3s4.7-12.4 11.5-12.4c3 0 6 1.3 7.6 3.7v-3.1zm-.2 11.7c0-3.6-2.9-6.2-6.1-6.2-3.4 0-6 2.8-6 6.2 0 3.3 2.6 6.2 6 6.2 3.3 0 6.1-2.8 6.1-6.2zM212 14.1v5l-11.7 12.3H212v6.1h-21.2v-5l11.5-12.4h-10.8V14l20.5.1h0zM240 28h-17.7c.7 2.8 2.9 4.4 6 4.4 2.4 0 4.7-1.1 6.2-2.8l3.8 3.9c-2.2 3-6.3 4.7-10.4 4.7-7.3 0-12.5-5.1-12.5-12.3 0-7.6 5.8-12.4 12.5-12.4 6.8 0 12.2 4.8 12.2 12 0 .6 0 1.4-.1 2.5zm-6.5-4.3c-.2-2.8-2.5-4.5-5.4-4.5-2.7 0-5 1.4-5.7 4.5h11.1z" enable-background="new" fill="#ffffff"></path><path d="M57.3 22.1H41c-.9 0-1.7-.4-2.3-.9-.6-.6-1-1.4-1-2.3 0-1.8 1.5-3.2 3.2-3.2h0 8c1.8 0 3.2-1.5 3.2-3.2 0-1.8-1.5-3.2-3.2-3.2H25.1c-1.8 0-3.2 1.5-3.2 3.2 0 1.8 1.5 3.2 3.2 3.2h2.7 0c.9 0 1.7.4 2.3 1s1 1.4 1 2.3c0 1.8-1.4 3.2-3.2 3.2h-8.8c-1.8 0-3.2 1.5-3.2 3.2s1.5 3.2 3.2 3.2h18.5c.9 0 1.7.4 2.3 1s1 1.4 1 2.3c0 1.8-1.5 3.2-3.2 3.2h0H32c-1.8 0-3.2 1.5-3.2 3.2s1.5 3.2 3.2 3.2h21.9c1.8 0 3.2-1.5 3.2-3.2s-1.5-3.2-3.2-3.2H50h0c-.9 0-1.7-.4-2.3-1s-1-1.4-1-2.3c0-1.8 1.5-3.2 3.2-3.2h7.3c1.8 0 3.2-1.5 3.2-3.2s-1.3-3.3-3.1-3.3zM23.5 34.8a3.33 3.33 0 0 0-3.3 3.3 3.33 3.33 0 0 0 3.3 3.3 3.33 3.33 0 0 0 3.3-3.3 3.33 3.33 0 0 0-3.3-3.3z" fill="#7e22ce"></path></svg>